<svg width="265" height="63" viewBox="0 0 265 63" xmlns="http://www.w3.org/2000/svg"><title>logo</title><g fill-rule="nonzero" fill="none"><path d="M22.137 21.83h-8.48v14.067c0 1.37.035 2.345.103 2.918.07.572.32 1.062.758 1.474.438.41 1.114.615 2.035.615l5.238-.137.416 7.343c-3.08.687-5.425 1.03-7.033 1.03-4.136 0-6.963-.926-8.478-2.778-1.517-1.854-2.275-5.27-2.275-10.26V21.83H.352v-7.824H4.42v-9.54l9.236-2.286v11.826h8.48v7.823M48.47 14.006h9.237v34.31H48.54v-1.92c-3.31 1.83-6.183 2.745-8.618 2.745-4.782 0-7.998-1.315-9.65-3.946-1.658-2.63-2.483-7.032-2.483-13.208v-17.98h9.236v18.116c0 3.386.275 5.695.827 6.93.553 1.237 1.883 1.853 4 1.853 2.022 0 3.93-.32 5.72-.96l.897-.274V14.007M63.956 48.317v-34.31h9.17v3.636c3.86-2.285 7.536-3.773 11.028-4.46v9.264c-3.723.778-6.915 1.577-9.582 2.402l-1.378.478v22.99h-9.238M98.836 48.317H89.6v-34.31h9.17v1.92c3.124-1.828 5.996-2.744 8.617-2.744 4.593 0 7.764 1.35 9.512 4.048 1.745 2.702 2.617 6.863 2.617 12.49v18.597h-9.236v-18.32c0-2.928-.344-5.09-1.033-6.486-.69-1.396-2.07-2.092-4.136-2.092-1.884 0-3.7.32-5.445.96l-.83.275v25.664M151.322 22.583c-5.7-.73-9.685-1.096-11.96-1.096-2.276 0-3.746.205-4.412.616-.667.413-1 1.064-1 1.957 0 .89.448 1.51 1.343 1.852.898.344 3.196.846 6.894 1.51 3.7.664 6.33 1.75 7.894 3.26 1.563 1.508 2.344 3.957 2.344 7.34 0 7.414-4.618 11.12-13.855 11.12-3.034 0-6.714-.413-11.032-1.236l-2.206-.412.276-7.685c5.697.73 9.662 1.095 11.894 1.095 2.227 0 3.743-.215 4.548-.65.803-.436 1.208-1.088 1.208-1.957 0-.868-.428-1.51-1.278-1.92-.85-.412-3.056-.914-6.618-1.51-3.563-.595-6.216-1.602-7.96-3.02-1.75-1.418-2.623-3.946-2.623-7.582 0-3.637 1.24-6.382 3.723-8.236 2.482-1.853 5.677-2.78 9.585-2.78 2.71 0 6.41.437 11.098 1.306l2.273.41-.138 7.617M178.205 21.83h-8.477v14.067c0 1.37.033 2.345.102 2.918.07.572.322 1.062.76 1.474.434.41 1.112.615 2.032.615l5.24-.137.413 7.343c-3.08.687-5.424 1.03-7.03 1.03-4.14 0-6.964-.926-8.48-2.778-1.517-1.854-2.275-5.27-2.275-10.26V21.83h-4.067v-7.824h4.067v-9.54l9.238-2.286v11.826h8.477v7.823M219.085 48.317V2.57l9.24-2.29v48.037h-9.24M255.575 28.074c0-2.746-.438-4.655-1.31-5.73-.873-1.074-2.4-1.612-4.586-1.612-2.184 0-3.723.56-4.618 1.68-.895 1.123-1.367 3.01-1.415 5.662h11.928zm-10.167 11.562c1.078.94 2.63 1.408 4.652 1.408 4.274 0 8.09-.14 11.443-.412l1.93-.207.137 6.795c-5.284 1.28-10.063 1.92-14.336 1.92-5.196 0-8.963-1.372-11.306-4.116-2.345-2.745-3.517-7.207-3.517-13.383 0-12.305 5.08-18.457 15.236-18.457 10.018 0 15.028 5.17 15.028 15.508l-.688 6.383h-20.268c.044 2.106.607 3.627 1.69 4.563z" fill="#FFF"/><path fill="#6FC3BD" d="M197.457 48.317h-5.374l-10.144-34.22h9.09l7.43 25.794"/><path fill="#FFF" d="M197.894 39.89l7.43-25.793h9.09l-14.26 48.145h-9.023l4.424-14.624"/></g></svg>