<?xml version="1.0" encoding="UTF-8" standalone="no"?>
<svg
   xmlns:dc="http://purl.org/dc/elements/1.1/"
   xmlns:cc="http://creativecommons.org/ns#"
   xmlns:rdf="http://www.w3.org/1999/02/22-rdf-syntax-ns#"
   xmlns:svg="http://www.w3.org/2000/svg"
   xmlns="http://www.w3.org/2000/svg"
   xmlns:sodipodi="http://sodipodi.sourceforge.net/DTD/sodipodi-0.dtd"
   xmlns:inkscape="http://www.inkscape.org/namespaces/inkscape"
   viewBox="0 0 490.66 167.59"
   version="1.1"
   id="svg3879"
   sodipodi:docname="logo.svg"
   inkscape:version="0.92.2 (5c3e80d, 2017-08-06)">
  <metadata
     id="metadata3883">
    <rdf:RDF>
      <cc:Work
         rdf:about="">
        <dc:format>image/svg+xml</dc:format>
        <dc:type
           rdf:resource="http://purl.org/dc/dcmitype/StillImage" />
      </cc:Work>
    </rdf:RDF>
  </metadata>
  <sodipodi:namedview
     pagecolor="#ffffff"
     bordercolor="#666666"
     borderopacity="1"
     objecttolerance="10"
     gridtolerance="10"
     guidetolerance="10"
     inkscape:pageopacity="0"
     inkscape:pageshadow="2"
     inkscape:window-width="1919"
     inkscape:window-height="1175"
     id="namedview3881"
     showgrid="false"
     inkscape:zoom="2.657451"
     inkscape:cx="235.63084"
     inkscape:cy="78.423868"
     inkscape:window-x="1441"
     inkscape:window-y="0"
     inkscape:window-maximized="0"
     inkscape:current-layer="svg3879" />
  <defs
     id="defs3861">
    <style
       id="style3859">.cls-1{fill:#fff;}.cls-2{fill:#ccc;}.cls-3,.cls-4{fill:#050505;}.cls-3,.cls-5{fill-rule:evenodd;}.cls-5{fill:#d32323;}</style>
  </defs>
  <title
     id="title3863">yelpwifi-onlight</title>
  <g
     id="Layer_2"
     data-name="Layer 2"
     transform="translate(-0.5321692,1.0643384)">
    <g
       id="Layer_1-2"
       data-name="Layer 1">
      <path
         class="cls-1"
         d="m 326.79,113.48 a 18.05,18.05 0 0 0 0.29,-14.65 c -3.26,-8 -11.41,-10.07 -11.41,-10.07 a 17.78,17.78 0 0 0 12,-24.31 58.43,58.43 0 0 0 -15.07,-20.74 17.81,17.81 0 0 0 -11.72,-4.43 h -0.09 a 17.5,17.5 0 0 0 -15,8.34 V 18.67 A 17.71,17.71 0 0 0 268,0.91 h -0.1 c -4.21,0 -12,1.4 -17.11,2.78 A 88,88 0 0 0 235.73,9.24 17.75,17.75 0 0 0 228,34.14 l 14.52,25.06 a 17.77,17.77 0 0 0 -25.16,10 q -0.27,0.8 -0.51,1.6 a 31.86,31.86 0 0 0 -8.5,-5.83 35.14,35.14 0 0 0 -15,-3.36 33.76,33.76 0 0 0 -11.41,2 19.11,19.11 0 0 0 -20.89,2 v -3.5 a 19.1,19.1 0 1 0 -38.19,0 V 72.68 A 35.07,35.07 0 0 0 97.43,62 36,36 0 0 0 75,70.13 19.28,19.28 0 0 0 41,75.69 l -0.81,2.62 -2.62,-5.38 a 19.49,19.49 0 0 0 -17.33,-10.87 19.46,19.46 0 0 0 -8.5,2 19.28,19.28 0 0 0 -8.87,25.78 L 21.15,127.3 A 18.37,18.37 0 0 0 10,139.67 a 18.56,18.56 0 0 0 2.81,16.22 c 2.68,3.63 7.95,8 17.86,8.26 h 1.43 c 5,0 21.78,-1.31 27.56,-18.9 1.62,-4.92 3.41,-10.74 5.28,-16.74 0.34,0.77 0.7,1.52 1.09,2.25 6,11.42 17,17.71 31,17.71 13.15,0 22.38,-4.44 28.09,-10.22 a 19.07,19.07 0 0 0 28.79,5.81 v 3.5 a 19.1,19.1 0 0 0 38.19,0.5 h 0.85 c 3.3,0 15.53,-0.63 24,-9.65 2.47,-2.64 9.64,-9.93 10.63,-28.63 a 17.73,17.73 0 0 0 4.72,0.64 21.29,21.29 0 0 0 4.86,-0.7 17.82,17.82 0 0 0 2.76,27 59.61,59.61 0 0 0 23.71,9.59 17.75,17.75 0 0 0 20.69,-16.89 v -0.61 l 0.32,0.52 a 17.76,17.76 0 0 0 26.36,4.28 59.61,59.61 0 0 0 15.79,-20.13 z"
         id="path3865"
         inkscape:connector-curvature="0"
         style="fill:#ffffff" />
      <path
         class="cls-2"
         d="M 318.39,88.82 A 18.5,18.5 0 0 0 328.24,79.5 19,19 0 0 0 328.48,64.09 59.33,59.33 0 0 0 313.18,43 18.73,18.73 0 0 0 300.86,38.34 h -0.09 A 18.19,18.19 0 0 0 286.7,44.77 V 18.67 A 18.62,18.62 0 0 0 268.05,0 h -0.11 c -4.29,0 -12.19,1.43 -17.35,2.81 a 88.94,88.94 0 0 0 -15.22,5.61 18.66,18.66 0 0 0 -8.11,26.17 l 13.09,22.67 a 19.14,19.14 0 0 0 -6.16,-1 18.64,18.64 0 0 0 -17.69,12.7 l -0.08,0.25 a 33.23,33.23 0 0 0 -7.68,-5 36.06,36.06 0 0 0 -15.38,-3.45 34.58,34.58 0 0 0 -11.36,1.84 20,20 0 0 0 -20,1.24 v -1.7 a 20,20 0 1 0 -40,0 v 8.37 A 36.33,36.33 0 0 0 97.46,61.14 36.89,36.89 0 0 0 75.24,68.84 20,20 0 0 0 65.39,62.1 20.18,20.18 0 0 0 40.1,75.42 l -0.13,0.43 -1.62,-3.31 a 20.41,20.41 0 0 0 -18.1,-11.39 20.37,20.37 0 0 0 -8.89,2.09 20.19,20.19 0 0 0 -9.29,27 l 17.86,36.59 a 19.23,19.23 0 0 0 -10.77,12.59 19.47,19.47 0 0 0 3,17 c 2.8,3.8 8.29,8.38 18.58,8.63 h 1.43 c 5.16,0 22.47,-1.41 28.43,-19.53 1.27,-3.85 2.63,-8.23 4.07,-12.86 l 0.53,-1.7 0.1,0.19 c 6.19,11.74 17.48,18.2 31.79,18.2 14.31,0 23,-5.07 27.89,-9.66 a 20,20 0 0 0 28.02,6.19 v 1.7 a 20.012599,20.012599 0 0 0 40,1.42 c 3.62,0 16,-0.73 24.64,-9.93 l 0.14,-0.15 c 2.61,-2.78 9.47,-10.07 10.67,-28 a 18.65,18.65 0 0 0 3.87,0.41 17.59,17.59 0 0 0 2.51,-0.21 18.46,18.46 0 0 0 -3.37,13.15 18.66,18.66 0 0 0 8,13.18 60.53,60.53 0 0 0 24.08,9.74 18.78,18.78 0 0 0 3.1,0.26 18.58,18.58 0 0 0 18.47,-16 18.67,18.67 0 0 0 26.56,2.85 60.53,60.53 0 0 0 16,-20.48 19,19 0 0 0 0.31,-15.38 18.55,18.55 0 0 0 -9.59,-9.62 z m -18.64,48.88 a 17.66,17.66 0 0 1 -15.06,-8.35 l -0.32,-0.52 v 0.61 a 17.75,17.75 0 0 1 -20.69,16.89 59.61,59.61 0 0 1 -23.71,-9.59 17.82,17.82 0 0 1 -2.76,-27 21.29,21.29 0 0 1 -4.86,0.7 17.73,17.73 0 0 1 -4.72,-0.64 c -1,18.7 -8.15,26 -10.63,28.63 -8.46,9 -20.69,9.65 -24,9.65 h -0.85 a 19.1,19.1 0 0 1 -38.19,-0.5 v -3.5 a 19.07,19.07 0 0 1 -28.79,-5.81 c -5.71,5.78 -14.94,10.22 -28.09,10.22 -14,0 -25,-6.29 -31,-17.71 -0.39,-0.73 -0.75,-1.48 -1.09,-2.25 -1.88,6 -3.67,11.82 -5.28,16.74 -5.78,17.59 -22.54,18.9 -27.56,18.9 H 30.72 C 20.8,163.93 15.53,159.55 12.86,155.91 A 18.56,18.56 0 0 1 10,139.67 18.37,18.37 0 0 1 21.15,127.3 L 2.87,89.84 a 19.28,19.28 0 0 1 8.87,-25.78 19.46,19.46 0 0 1 8.5,-2 19.49,19.49 0 0 1 17.29,10.87 L 40.15,78.31 41,75.69 A 19.28,19.28 0 0 1 75,70.13 36,36 0 0 1 97.43,62 35.07,35.07 0 0 1 122.88,72.63 V 62.14 a 19.1,19.1 0 1 1 38.19,0 v 3.5 a 19.11,19.11 0 0 1 20.89,-2 33.76,33.76 0 0 1 11.41,-2 35.14,35.14 0 0 1 15,3.36 31.86,31.86 0 0 1 8.5,5.83 q 0.24,-0.8 0.51,-1.6 a 17.77,17.77 0 0 1 25.16,-10 L 228,34.14 a 17.75,17.75 0 0 1 7.72,-24.9 88,88 0 0 1 15.06,-5.55 C 256,2.31 263.73,0.91 267.94,0.91 h 0.1 a 17.71,17.71 0 0 1 17.73,17.76 v 28.94 a 17.5,17.5 0 0 1 15,-8.34 h 0.09 a 17.81,17.81 0 0 1 11.72,4.43 58.43,58.43 0 0 1 15.07,20.74 17.78,17.78 0 0 1 -12,24.31 c 0,0 8.15,2.12 11.41,10.07 a 18.05,18.05 0 0 1 -0.29,14.65 59.61,59.61 0 0 1 -15.74,20.17 17.79,17.79 0 0 1 -11.28,4.06 z"
         id="path3867"
         inkscape:connector-curvature="0"
         style="fill:#cccccc" />
      <path
         class="cls-3"
         d="m 148.71,129.22 a 6.74,6.74 0 1 1 -13.48,0 V 62.14 a 6.74,6.74 0 1 1 13.48,0 z"
         id="path3869"
         inkscape:connector-curvature="0"
         style="fill:#050505;fill-rule:evenodd" />
      <path
         class="cls-4"
         d="m 90.35,110.46 h 24.72 a 7.23,7.23 0 0 0 6.56,-7.51 v -0.34 C 120.4,78 104.6,74.4 97.43,74.4 c -7.45,0 -24.34,4.4 -24.34,31.77 0.13,10.29 2.33,30 24,30 18.7,0 22.88,-10.8 22.88,-13.55 0,-4.06 -3.38,-7.51 -7.21,-6.21 -3.1,1.05 -7.36,7.23 -14.21,7.23 -9.81,0 -11.08,-9 -11.08,-10.88 -0.02,-1.61 0.81,-2.23 2.88,-2.3 z m -2.93,-12 c 0.45,-9.31 7.5,-10.84 10.68,-10.84 3.18,0 10.27,1.55 10.65,11 0,0.5 -0.27,0.8 -0.56,0.8 H 88 C 87.68,99.36 87.38,99 87.42,98.41 Z M 35,127.58 14,84.42 a 6.93,6.93 0 1 1 12.45,-6.07 l 16.31,33.42 10,-32.43 A 6.93,6.93 0 0 1 66,83.43 c 0,0 -11.28,36.89 -18.06,58.08 -2.24,7 -8.12,10.49 -16.93,10.27 -8.81,-0.22 -10.06,-5.35 -9.1,-8.74 1.06,-3.73 4.17,-4.85 7.22,-4.84 C 37,138.26 38,133.49 35,127.58 Z m 180.31,-25.15 c 0,-8.85 -1.09,-21 -12.26,-26.28 a 22,22 0 0 0 -20,0.51 35.61,35.61 0 0 0 -3.43,2.24 6.74,6.74 0 0 0 -13.29,1.59 v 67.09 a 6.74,6.74 0 1 0 13.48,0 V 130 c 0,0 4.53,5.55 11.74,5.74 25.58,0.64 23.9,-27.21 23.76,-33.31 z M 202,107.55 c 0,5.33 0,14.89 -9.69,14.89 -9.69,0 -9.69,-9.57 -9.69,-14.89 v -4.87 c 0,-5.33 0,-14.89 9.69,-14.89 9.69,0 9.69,9.56 9.69,14.89 z"
         id="path3871"
         inkscape:connector-curvature="0"
         style="fill:#050505" />
      <path
         class="cls-5"
         d="M 236.56,70 260.1,81.52 A 5.4,5.4 0 0 1 259,91.61 l -25.41,6.34 A 5.41,5.41 0 0 1 227,93.3 46.46,46.46 0 0 1 229.12,73.16 5.4,5.4 0 0 1 236.56,70 Z M 246,118.5 263.5,99 a 5.4,5.4 0 0 1 9.4,3.8 L 272,129 a 5.4,5.4 0 0 1 -6.3,5.14 46.89,46.89 0 0 1 -18.76,-7.59 5.4,5.4 0 0 1 -0.94,-8.05 z m 41.53,-25.9 24.91,8.09 a 5.4,5.4 0 0 1 3.21,7.46 46.89,46.89 0 0 1 -12.45,16 5.4,5.4 0 0 1 -8,-1.3 l -13.88,-22.22 a 5.4,5.4 0 0 1 6.21,-8.03 z m 25.32,-15.89 -25.18,7.22 a 5.4,5.4 0 0 1 -6,-8.21 L 296.36,54 a 5.4,5.4 0 0 1 8,-1 46.46,46.46 0 0 1 11.91,16.38 5.41,5.41 0 0 1 -3.42,7.33 z M 254,15.62 a 75.36,75.36 0 0 0 -12.94,4.77 5.4,5.4 0 0 0 -2.31,7.61 l 24.61,42.62 a 5.4,5.4 0 0 0 10.07,-2.7 V 18.67 A 5.4,5.4 0 0 0 267.62,13.29 75.36,75.36 0 0 0 254,15.62 Z"
         id="path3873"
         inkscape:connector-curvature="0"
         style="fill:#d32323;fill-rule:evenodd" />
      <path
         class="cls-4"
         d="m 371,92.1 a 9.24,9.24 0 0 1 -0.5,-2.45 2.81,2.81 0 0 1 3,-2.81 c 1.37,0 2.66,0.5 3.53,3.24 l 8.14,26.14 h 0.14 l 8,-25.2 c 0.86,-2.74 1.44,-4.18 3.74,-4.18 2.3,0 2.88,1.44 3.74,4.18 l 8,25.2 h 0.14 l 8.14,-26.14 c 0.86,-2.74 2.16,-3.24 3.53,-3.24 a 2.81,2.81 0 0 1 3,2.81 9.26,9.26 0 0 1 -0.5,2.45 l -10.51,30.6 c -0.86,2.45 -1.87,3.31 -3.67,3.31 -1.8,0 -2.81,-0.86 -3.6,-3.31 L 397.11,96.85 H 397 l -8.21,25.85 c -0.79,2.45 -1.87,3.31 -3.6,3.31 -1.73,0 -2.81,-0.86 -3.67,-3.31 z m 67.32,-18.22 a 3.89,3.89 0 1 1 -3.89,3.89 3.87,3.87 0 0 1 3.89,-3.89 z m 3.17,48.75 a 3.18,3.18 0 1 1 -6.34,0 V 90.22 a 3.18,3.18 0 1 1 6.34,0 z m 23.9,0 a 3.18,3.18 0 1 1 -6.34,0 V 92.74 h -2.59 c -2.09,0 -3.17,-1 -3.17,-2.74 0,-1.74 1.08,-2.74 3.17,-2.74 h 2.59 v -9 c 0,-5.54 3.82,-8.28 8.42,-8.28 h 1.94 c 1.66,0 3.6,1 3.6,2.74 0,1.74 -1.08,2.74 -3.46,2.74 H 468 c -1.94,0 -2.59,0.94 -2.59,2.52 v 9.29 h 4 c 2.09,0 3.17,1 3.17,2.74 0,1.74 -1.08,2.74 -3.17,2.74 h -4 z m 21.39,-48.75 a 3.89,3.89 0 1 1 -3.89,3.89 3.87,3.87 0 0 1 3.89,-3.89 z m 3.17,48.75 a 3.18,3.18 0 1 1 -6.34,0 V 90.22 a 3.18,3.18 0 1 1 6.34,0 z"
         id="path3875"
         inkscape:connector-curvature="0"
         style="fill:#050505" />
    </g>
  </g>
  <path
     style="fill:#ffffff;stroke-width:0.37630045"
     d="m 382.69609,125.98713 c -0.97363,-0.88868 -1.93105,-3.36241 -6.77934,-17.51611 -3.10508,-9.064709 -5.6456,-17.039553 -5.6456,-17.721877 0,-1.58943 0.9894,-2.486135 2.74314,-2.486135 1.93064,0 2.72169,1.030942 4.03165,5.254294 5.01093,16.155428 7.42056,23.742208 7.59667,23.918328 0.11387,0.11386 1.00304,-2.29701 1.97592,-5.35751 5.99682,-18.864673 7.19313,-22.393289 7.82028,-23.06645 0.937,-1.005751 3.32062,-1.015297 4.22415,-0.01692 0.36422,0.40246 2.6081,6.879532 4.9864,14.3935 2.37831,7.51396 4.4415,13.78687 4.58488,13.9398 0.14338,0.15293 2.18834,-5.91511 4.54435,-13.48453 2.35601,-7.569426 4.6054,-14.171623 4.99865,-14.671553 0.52806,-0.671322 1.08256,-0.908963 2.12095,-0.908963 2.10874,0 2.87922,0.740968 2.80545,2.698014 -0.074,1.962258 -11.00721,33.856902 -11.97094,34.921812 -1.53536,1.69655 -4.08693,1.19453 -5.22573,-1.02815 -0.29061,-0.5672 -2.34396,-6.78868 -4.56298,-13.8255 -2.21903,-7.03681 -4.15681,-12.925748 -4.30617,-13.086512 -0.14936,-0.160763 -2.10681,5.511972 -4.34988,12.606072 -2.24307,7.0941 -4.39601,13.54019 -4.78432,14.32465 -1.13467,2.29224 -3.03424,2.73231 -4.80753,1.11374 z"
     id="path3885"
     inkscape:connector-curvature="0" />
  <path
     style="fill:#ffffff;stroke-width:0.37630045"
     d="m 440.81248,107.64248 c 8e-5,-9.313435 0.049,-13.069581 0.10878,-8.346991 0.0598,4.722591 0.0597,12.342671 -1.5e-4,16.933521 -0.0598,4.59084 -0.10871,0.72691 -0.10863,-8.58653 z"
     id="path3887"
     inkscape:connector-curvature="0" />
  <path
     style="fill:#ffffff;stroke-width:0.37630045"
     d="m 435.90289,126.14846 -1.09622,-0.94302 v -17.67921 c 0,-16.581106 0.0426,-17.726294 0.68622,-18.437369 0.37742,-0.416992 1.09856,-0.861657 1.60253,-0.988145 1.05876,-0.265733 2.96461,0.595716 3.31016,1.496202 0.12856,0.33503 0.23375,8.450623 0.23375,18.034652 0,16.0427 -0.0523,17.48845 -0.65853,18.21866 -1.0671,1.28526 -2.78451,1.41086 -4.07791,0.29823 z"
     id="path3889"
     inkscape:connector-curvature="0" />
  <path
     style="fill:#ffffff;stroke-width:0.37630045"
     d="m 436.03911,82.031923 c -1.28393,-0.696762 -1.79689,-1.635704 -1.79689,-3.289091 0,-2.70716 2.7832,-4.370936 5.21134,-3.115298 1.38806,0.717795 1.93837,1.634223 1.93837,3.227962 0,1.574623 -0.54812,2.509037 -1.87397,3.194659 -1.35797,0.702231 -2.15898,0.698033 -3.47885,-0.01823 z"
     id="path3891"
     inkscape:connector-curvature="0" />
  <path
     style="fill:#ffffff;stroke-width:0.37630045"
     d="m 460.3951,126.56745 c -1.67704,-0.96178 -1.66885,-0.8774 -1.68138,-17.32569 l -0.012,-15.710546 h -2.19948 c -2.53169,0 -3.44503,-0.665799 -3.44503,-2.511336 0,-1.691561 1.00665,-2.38057 3.47804,-2.38057 h 2.10172 l 0.12645,-6.177654 c 0.12628,-6.16911 0.12801,-6.17987 1.25535,-7.779345 1.68483,-2.390447 3.79347,-3.352822 7.3463,-3.352822 3.40354,0 4.88347,0.792572 4.88347,2.615339 0,1.517495 -0.86757,2.035334 -3.87116,2.310645 -1.93536,0.177396 -2.78718,0.428357 -3.15327,0.929011 -0.36258,0.495862 -0.50158,2.178115 -0.50158,6.070392 v 5.384434 h 2.82225 c 3.14564,0 4.32746,0.667986 4.32746,2.445953 0,1.777967 -1.18182,2.445953 -4.32746,2.445953 h -2.82225 v 15.645416 15.64542 l -1.09996,1.09995 c -1.17218,1.17218 -2.01511,1.34076 -3.2275,0.64545 z"
     id="path3893"
     inkscape:connector-curvature="0" />
  <path
     style="fill:#ffffff;stroke-width:0.37630045"
     d="m 484.26124,125.922 -1.09996,-1.09996 V 107.50426 90.186478 l 0.8812,-1.024452 c 1.13207,-1.316114 2.88986,-1.376161 4.20192,-0.14354 l 0.93769,0.880912 V 107.301 c 0,9.57088 -0.10519,17.67571 -0.23375,18.01074 -0.26324,0.68598 -2.04498,1.71021 -2.97507,1.71021 -0.33664,0 -1.10706,-0.49497 -1.71203,-1.09995 z"
     id="path3895"
     inkscape:connector-curvature="0" />
  <path
     style="fill:#ffffff;stroke-width:0.37630045"
     d="m 484.76294,82.231354 c -1.27106,-0.511015 -2.42283,-2.591251 -2.18165,-3.940308 0.24973,-1.396885 2.1595,-3.198554 3.39047,-3.198554 1.42551,0 2.83829,0.798215 3.4267,1.936075 0.87383,1.689806 0.66473,2.902588 -0.74319,4.310512 -1.3044,1.304398 -2.29973,1.532566 -3.89233,0.892275 z"
     id="path3897"
     inkscape:connector-curvature="0" />
</svg>
