<svg xmlns="http://www.w3.org/2000/svg" viewBox="0 0 490.66 167.59"><defs><style>.cls-1{fill:#fff;}.cls-2{fill:#ccc;}.cls-3,.cls-4{fill:#050505;}.cls-3,.cls-5{fill-rule:evenodd;}.cls-5{fill:#d32323;}</style></defs><title>yelpwifi-onlight</title><g id="Layer_2" data-name="Layer 2"><g id="Layer_1-2" data-name="Layer 1"><path class="cls-1" d="M326.79 113.48a18.05 18.05 0 0 0 .29-14.65c-3.26-8-11.41-10.07-11.41-10.07a17.78 17.78 0 0 0 12-24.31 58.43 58.43 0 0 0-15.07-20.74 17.81 17.81 0 0 0-11.72-4.43h-.09a17.5 17.5 0 0 0-15 8.34V18.67A17.71 17.71 0 0 0 268 .91h-.1c-4.21 0-12 1.4-17.11 2.78a88 88 0 0 0-15.06 5.55 17.75 17.75 0 0 0-7.73 24.9l14.52 25.06a17.77 17.77 0 0 0-25.16 10q-.27.8-.51 1.6a31.86 31.86 0 0 0-8.5-5.83 35.14 35.14 0 0 0-15-3.36 33.76 33.76 0 0 0-11.41 2 19.11 19.11 0 0 0-20.89 2v-3.5a19.1 19.1 0 1 0-38.19 0v10.57A35.07 35.07 0 0 0 97.43 62 36 36 0 0 0 75 70.13a19.28 19.28 0 0 0-34 5.56l-.81 2.62-2.62-5.38a19.49 19.49 0 0 0-17.33-10.87 19.46 19.46 0 0 0-8.5 2 19.28 19.28 0 0 0-8.87 25.78l18.28 37.46A18.37 18.37 0 0 0 10 139.67a18.56 18.56 0 0 0 2.81 16.22c2.68 3.63 7.95 8 17.86 8.26h1.43c5 0 21.78-1.31 27.56-18.9 1.62-4.92 3.41-10.74 5.28-16.74.34.77.7 1.52 1.09 2.25 6 11.42 17 17.71 31 17.71 13.15 0 22.38-4.44 28.09-10.22a19.07 19.07 0 0 0 28.79 5.81v3.5a19.1 19.1 0 0 0 38.19.5h.85c3.3 0 15.53-.63 24-9.65 2.47-2.64 9.64-9.93 10.63-28.63a17.73 17.73 0 0 0 4.72.64 21.29 21.29 0 0 0 4.86-.7 17.82 17.82 0 0 0 2.76 27 59.61 59.61 0 0 0 23.71 9.59 17.75 17.75 0 0 0 20.69-16.89v-.61l.32.52a17.76 17.76 0 0 0 26.36 4.28 59.61 59.61 0 0 0 15.79-20.13z"/><path class="cls-2" d="M318.39 88.82a18.5 18.5 0 0 0 9.85-9.32 19 19 0 0 0 .24-15.41A59.33 59.33 0 0 0 313.18 43a18.73 18.73 0 0 0-12.32-4.66h-.09a18.19 18.19 0 0 0-14.07 6.43v-26.1A18.62 18.62 0 0 0 268.05 0h-.11c-4.29 0-12.19 1.43-17.35 2.81a88.94 88.94 0 0 0-15.22 5.61 18.66 18.66 0 0 0-8.11 26.17l13.09 22.67a19.14 19.14 0 0 0-6.16-1 18.64 18.64 0 0 0-17.69 12.7l-.08.25a33.23 33.23 0 0 0-7.68-5 36.06 36.06 0 0 0-15.38-3.45A34.58 34.58 0 0 0 182 62.6a20 20 0 0 0-20 1.24v-1.7a20 20 0 1 0-40 0v8.37a36.33 36.33 0 0 0-24.54-9.37 36.89 36.89 0 0 0-22.22 7.7 20 20 0 0 0-9.85-6.74A20.18 20.18 0 0 0 40.1 75.42l-.13.43-1.62-3.31a20.41 20.41 0 0 0-18.1-11.39 20.37 20.37 0 0 0-8.89 2.09 20.19 20.19 0 0 0-9.29 27l17.86 36.59a19.23 19.23 0 0 0-10.77 12.59 19.47 19.47 0 0 0 3 17c2.8 3.8 8.29 8.38 18.58 8.63h1.43c5.16 0 22.47-1.41 28.43-19.53 1.27-3.85 2.63-8.23 4.07-12.86l.53-1.7.1.19c6.19 11.74 17.48 18.2 31.79 18.2s23-5.07 27.89-9.66a20 20 0 0 0 28.02 6.19v1.7a20 20 0 0 0 40 1.42c3.62 0 16-.73 24.64-9.93l.14-.15c2.61-2.78 9.47-10.07 10.67-28a18.65 18.65 0 0 0 3.87.41 17.59 17.59 0 0 0 2.51-.21 18.46 18.46 0 0 0-3.37 13.15 18.66 18.66 0 0 0 8 13.18 60.53 60.53 0 0 0 24.08 9.74 18.78 18.78 0 0 0 3.1.26 18.58 18.58 0 0 0 18.47-16 18.67 18.67 0 0 0 26.56 2.85 60.53 60.53 0 0 0 16-20.48 19 19 0 0 0 .31-15.38 18.55 18.55 0 0 0-9.59-9.62zm-18.64 48.88a17.66 17.66 0 0 1-15.06-8.35l-.32-.52v.61a17.75 17.75 0 0 1-20.69 16.89 59.61 59.61 0 0 1-23.71-9.59 17.82 17.82 0 0 1-2.76-27 21.29 21.29 0 0 1-4.86.7 17.73 17.73 0 0 1-4.72-.64c-1 18.7-8.15 26-10.63 28.63-8.46 9-20.69 9.65-24 9.65h-.85a19.1 19.1 0 0 1-38.19-.5v-3.5a19.07 19.07 0 0 1-28.79-5.81c-5.71 5.78-14.94 10.22-28.09 10.22-14 0-25-6.29-31-17.71-.39-.73-.75-1.48-1.09-2.25-1.88 6-3.67 11.82-5.28 16.74-5.78 17.59-22.54 18.9-27.56 18.9h-1.43c-9.92-.24-15.19-4.62-17.86-8.26A18.56 18.56 0 0 1 10 139.67a18.37 18.37 0 0 1 11.15-12.37L2.87 89.84a19.28 19.28 0 0 1 8.87-25.78 19.46 19.46 0 0 1 8.5-2 19.49 19.49 0 0 1 17.29 10.87l2.62 5.38.85-2.62a19.28 19.28 0 0 1 34-5.56A36 36 0 0 1 97.43 62a35.07 35.07 0 0 1 25.45 10.63V62.14a19.1 19.1 0 1 1 38.19 0v3.5a19.11 19.11 0 0 1 20.89-2 33.76 33.76 0 0 1 11.41-2 35.14 35.14 0 0 1 15 3.36 31.86 31.86 0 0 1 8.5 5.83q.24-.8.51-1.6a17.77 17.77 0 0 1 25.16-10L228 34.14a17.75 17.75 0 0 1 7.72-24.9 88 88 0 0 1 15.06-5.55C256 2.31 263.73.91 267.94.91h.1a17.71 17.71 0 0 1 17.73 17.76v28.94a17.5 17.5 0 0 1 15-8.34h.09a17.81 17.81 0 0 1 11.72 4.43 58.43 58.43 0 0 1 15.07 20.74 17.78 17.78 0 0 1-12 24.31s8.15 2.12 11.41 10.07a18.05 18.05 0 0 1-.29 14.65 59.61 59.61 0 0 1-15.74 20.17 17.79 17.79 0 0 1-11.28 4.06z"/><path class="cls-3" d="M148.71 129.22a6.74 6.74 0 1 1-13.48 0V62.14a6.74 6.74 0 1 1 13.48 0z"/><path class="cls-4" d="M90.35 110.46h24.72a7.23 7.23 0 0 0 6.56-7.51v-.34C120.4 78 104.6 74.4 97.43 74.4c-7.45 0-24.34 4.4-24.34 31.77.13 10.29 2.33 30 24 30 18.7 0 22.88-10.8 22.88-13.55 0-4.06-3.38-7.51-7.21-6.21-3.1 1.05-7.36 7.23-14.21 7.23-9.81 0-11.08-9-11.08-10.88-.02-1.61.81-2.23 2.88-2.3zm-2.93-12c.45-9.31 7.5-10.84 10.68-10.84s10.27 1.55 10.65 11c0 .5-.27.8-.56.8H88c-.32-.06-.62-.42-.58-1.01zM35 127.58L14 84.42a6.93 6.93 0 1 1 12.45-6.07l16.31 33.42 10-32.43A6.93 6.93 0 0 1 66 83.43s-11.28 36.89-18.06 58.08c-2.24 7-8.12 10.49-16.93 10.27s-10.06-5.35-9.1-8.74c1.06-3.73 4.17-4.85 7.22-4.84 7.87.06 8.87-4.71 5.87-10.62zM215.31 102.43c0-8.85-1.09-21-12.26-26.28a22 22 0 0 0-20 .51 35.61 35.61 0 0 0-3.43 2.24 6.74 6.74 0 0 0-13.29 1.59v67.09a6.74 6.74 0 1 0 13.48 0V130s4.53 5.55 11.74 5.74c25.58.64 23.9-27.21 23.76-33.31zM202 107.55c0 5.33 0 14.89-9.69 14.89s-9.69-9.57-9.69-14.89v-4.87c0-5.33 0-14.89 9.69-14.89s9.69 9.56 9.69 14.89z"/><path class="cls-5" d="M236.56 70l23.54 11.52a5.4 5.4 0 0 1-1.1 10.09l-25.41 6.34A5.41 5.41 0 0 1 227 93.3a46.46 46.46 0 0 1 2.12-20.14 5.4 5.4 0 0 1 7.44-3.16zM246 118.5L263.5 99a5.4 5.4 0 0 1 9.4 3.8L272 129a5.4 5.4 0 0 1-6.3 5.14 46.89 46.89 0 0 1-18.76-7.59 5.4 5.4 0 0 1-.94-8.05zM287.53 92.6l24.91 8.09a5.4 5.4 0 0 1 3.21 7.46 46.89 46.89 0 0 1-12.45 16 5.4 5.4 0 0 1-8-1.3l-13.88-22.22a5.4 5.4 0 0 1 6.21-8.03zM312.85 76.71l-25.18 7.22a5.4 5.4 0 0 1-6-8.21L296.36 54a5.4 5.4 0 0 1 8-1 46.46 46.46 0 0 1 11.91 16.38 5.41 5.41 0 0 1-3.42 7.33zM254 15.62a75.36 75.36 0 0 0-12.94 4.77 5.4 5.4 0 0 0-2.31 7.61l24.61 42.62a5.4 5.4 0 0 0 10.07-2.7V18.67a5.4 5.4 0 0 0-5.81-5.38A75.36 75.36 0 0 0 254 15.62z"/><path class="cls-4" d="M371 92.1a9.24 9.24 0 0 1-.5-2.45 2.81 2.81 0 0 1 3-2.81c1.37 0 2.66.5 3.53 3.24l8.14 26.14h.14l8-25.2c.86-2.74 1.44-4.18 3.74-4.18s2.88 1.44 3.74 4.18l8 25.2h.14l8.14-26.14c.86-2.74 2.16-3.24 3.53-3.24a2.81 2.81 0 0 1 3 2.81 9.26 9.26 0 0 1-.5 2.45l-10.51 30.6c-.86 2.45-1.87 3.31-3.67 3.31s-2.81-.86-3.6-3.31l-8.21-25.85H397l-8.21 25.85c-.79 2.45-1.87 3.31-3.6 3.31s-2.81-.86-3.67-3.31zM438.32 73.88a3.89 3.89 0 1 1-3.89 3.89 3.87 3.87 0 0 1 3.89-3.89zm3.17 48.75a3.18 3.18 0 1 1-6.34 0V90.22a3.18 3.18 0 1 1 6.34 0zM465.39 122.63a3.18 3.18 0 1 1-6.34 0V92.74h-2.59c-2.09 0-3.17-1-3.17-2.74s1.08-2.74 3.17-2.74h2.59v-9c0-5.54 3.82-8.28 8.42-8.28h1.94c1.66 0 3.6 1 3.6 2.74s-1.08 2.74-3.46 2.74H468c-1.94 0-2.59.94-2.59 2.52v9.29h4c2.09 0 3.17 1 3.17 2.74s-1.08 2.74-3.17 2.74h-4zM486.78 73.88a3.89 3.89 0 1 1-3.89 3.89 3.87 3.87 0 0 1 3.89-3.89zm3.17 48.75a3.18 3.18 0 1 1-6.34 0V90.22a3.18 3.18 0 1 1 6.34 0z"/></g></g></svg>
